# xmcd
#
# Track frame offsets:
#	180
#	13717
#	27583
#	42642
#	51434
#	64541
#	78000
#	90017
#	104160
#	118770
#	133087
#	145461
#	155282
#	167979
#	179768
#	191858
#	204500
#	218962
#
# Disc length: 3083 seconds
#
# Revision: 0
# Processed by: cddbd v1.5.1PL0 Copyright (c) Steve Scherf et al.
# Submitted via: dBpowerAMP V4.0
#
DISCID=0f0c0912
DTITLE=Various Artist - Negro Spitituals - Gospel Songs 1926-1942 Disc2
DYEAR=1993
DGENRE=Gospel
TTITLE0=Mahalia Jackson/Oh, My Lord
TTITLE1=Mahalia Jackson/God Shall Wipe All Tears Away
TTITLE2=Selah Jubilee Singers/I Want Jesus To Walk Around My Betside
TTITLE3=Blind Willie Davis/When The Saints Go Marching In
TTITLE4=Blind Joe Taggart/When I Stand Before The King
TTITLE5=Chicago Sanctified Singers/Tell Me What Kind Of Man Is Jesus
TTITLE6=Elder Charles Beck/Gabriel
TTITLE7=Rev. Gary Davis/Twelve Gates To The City
TTITLE8=Bessie Smith/Moan, You Moaners
TTITLE9=Louis Armstrong/Nobody Knows The Trouble I've Seen
TTITLE10=Golden Gate Quartet/The Valley Of Time
TTITLE11=Golden Gate Quartet/The Sun Did'nt Shine
TTITLE12=Georgia Peach/Do Lord Send Me
TTITLE13=Golden Eagle Gospel Singers/Shake Mother's Hand For Me
TTITLE14=Sister Rosetta Tharpe/This Train
TTITLE15=Sister Rosetta Tharpe/Rock Me
TTITLE16=Southern Sons/I'm Free At Last
TTITLE17=Charioteers/Wade In The Water
EXTD=
EXTT0=
EXTT1=
EXTT2=
EXTT3=
EXTT4=
EXTT5=
EXTT6=
EXTT7=
EXTT8=
EXTT9=
EXTT10=
EXTT11=
EXTT12=
EXTT13=
EXTT14=
EXTT15=
EXTT16=
EXTT17=
PLAYORDER=
